<?xml version="1.0" encoding="UTF-8"?>
<svg id="Layer_1" xmlns="http://www.w3.org/2000/svg" version="1.1" viewBox="0 0 24 24">
  <!-- Generator: Adobe Illustrator 29.0.0, SVG Export Plug-In . SVG Version: 2.1.0 Build 186)  -->
  <defs>
    <style>
      .st0 {
        fill: none;
      }

      .st1 {
        fill: #c1c4c0;
      }
    </style>
  </defs>
  <path class="st1" d="M20,2H4c-1.1,0-2,.9-2,2v16c0,1.1.9,2,2,2h16c1.1,0,2-.9,2-2V4c0-1.1-.9-2-2-2ZM8.1,18h-3.1v-8.6h3.1v8.6ZM6.5,8.4h0c-.9,0-1.5-.6-1.5-1.4s.6-1.4,1.6-1.4,1.5.6,1.5,1.4-.6,1.4-1.6,1.4ZM19,18h-3.1v-4.7c0-1.3-.8-1.6-1.1-1.6s-1.3.2-1.3,1.6v4.7h-3.1v-8.6h3.1v1.2c.4-.7,1.2-1.2,2.7-1.2s2.7,1.2,2.7,3.9v4.7h0Z"/>
  <rect class="st0" width="24" height="24"/>
</svg>