<?xml version="1.0" encoding="UTF-8"?>
<svg id="Layer_2" data-name="Layer 2" xmlns="http://www.w3.org/2000/svg" viewBox="0 0 124.99 101.1">
  <g id="Layer_1-2" data-name="Layer 1">
    <g>
      <g>
        <path d="M10.37,62.62c-1.95.26-3.9.38-5.84.38s-3.18-.11-3.72-.33c-.54-.22-.81-.57-.81-1.05v-29.29c0-.79.91-1.53,2.74-2.19,1.83-.67,3.9-1,6.22-1,.83,0,1.45.03,1.86.1,1.08.16,1.84.84,2.29,2.05l4.58,12.31h.19v-11.26c0-.79.91-1.53,2.72-2.19,1.81-.67,3.88-1,6.2-1,2,0,3.27.38,3.82,1.14.38.54.57,1.03.57,1.48v29.86c0,.41-.98.75-2.93,1-1.95.26-4.1.38-6.44.38s-3.62-.3-3.84-.91l-4.44-11.73h-.24v11.26c0,.41-.98.75-2.93,1Z"/>
        <path d="M46.96,62.48c-.91.35-2.54.52-4.89.52s-4.32-.21-5.89-.64c-1.57-.43-2.36-.98-2.36-1.65,0-.76,1.41-5.64,4.25-14.62,2.83-8.98,4.45-14.16,4.87-15.53.16-.41,1.44-.75,3.84-1.02s4.98-.41,7.73-.41,4.27.48,4.56,1.43c6.01,19.97,9.01,30.11,9.01,30.43s-.19.64-.57.95c-.89.7-2.66,1.05-5.3,1.05-5.63,0-8.51-.67-8.63-2l-.34-3.1h-4.58l-.24,2.67c-.06.92-.55,1.56-1.46,1.91ZM52.23,48.84l-.72-8.59h-1.05l-.81,8.59h2.58Z"/>
        <path d="M13.42,99.67c0,.41-.97.75-2.91,1-1.94.26-3.89.38-5.84.38s-3.21-.11-3.77-.33c-.56-.22-.84-.57-.84-1.05v-30.67c0-.83,1.04-1.41,3.13-1.77,2.08-.35,4.71-.52,7.89-.52s5.24,0,6.18.02c.94.02,2.04.07,3.31.17s2.28.25,3.03.48c.75.22,1.57.51,2.48.86.91.35,1.61.8,2.12,1.36.51.56,1,1.22,1.48,1.98.86,1.37,1.29,3.31,1.29,5.84s-.42,4.66-1.26,6.39-1.96,3.04-3.36,3.93c3.66,5.76,5.48,9.41,5.48,10.97s-3.13,2.34-9.4,2.34c-1.81,0-3.07-.08-3.77-.24-.7-.16-1.14-.51-1.33-1.05l-3.1-9.83-.81-.05v9.78ZM13.42,82.55h1.24c1.84,0,2.77-1.43,2.77-4.29,0-1.46-.25-2.5-.74-3.1s-1.06-.91-1.69-.91h-1.57v8.3Z"/>
        <path d="M46.93,100.53c-.91.35-2.54.52-4.89.52s-4.32-.21-5.89-.64c-1.57-.43-2.36-.98-2.36-1.65,0-.76,1.41-5.64,4.24-14.62,2.83-8.98,4.45-14.16,4.87-15.53.16-.41,1.44-.75,3.84-1.02s4.98-.41,7.73-.41,4.27.48,4.55,1.43c6.01,19.97,9.02,30.11,9.02,30.43s-.19.64-.57.95c-.89.7-2.66,1.05-5.29,1.05-5.63,0-8.51-.67-8.63-2l-.33-3.1h-4.58l-.24,2.67c-.06.92-.55,1.56-1.45,1.91ZM52.2,86.89l-.72-8.59h-1.05l-.81,8.59h2.58Z"/>
        <path d="M55.93,25.09c-1.33,1.55-3.29,1.6-4.75.19-.7-.68-1.78-2.08-1.98-3.13-1.11-6.02,2.58-11.5,8.24-13.35,1.76-.58,3.67-1.52,5.48-.7,3.2,1.45,3.6,5.62,1.47,8.24-1.2,1.47-2.9,2.29-4.15,3.74l-4.32,5Z"/>
      </g>
      <g>
        <path d="M109.19,96.25c.33.08,1,.58,1.18.85.7,1.01-.99,2.7-3.94,3.29-5.84,1.16-11.48.6-17.37.33-4.98-.23-9.68.4-14.63-.39-.95-.15-1.58-1.24-1.63-1.83-.21-2.52,6.49-4.32,10.49-5.13,2.92-.59,4.47-2.35,5.36-5.11,2.94-9.11,2.88-18.68.27-27.97-.46-1.66-.64-4.23-1.81-5.35-1.93-1.84-3.31-3.36-4.71-5.49-3.85-5.84-11.81-7.34-17.04-12.63-4.07-5.62-5.45-10.42-5.58-17.15-.01-.56.29-1.1.77-1.38,4.36-2.52,8.89-3.47,13.89-3.42l15.4.16s9.2.36,12.38.12c6.78-.5,13.72-.42,20.32,1.08,1.54.35,2.85,1.63,2.35,3.35l-1.9,6.61c-1.41,4.89.17,7.6-5.24,12.52-3.7,3.37-8.16,5.41-13,6.64-4.52,1.16-.78,6.67-7.32,9.33-1.49,2.99-2.5,6.13-2.72,9.56-.51,8.12-.35,16.14.52,24.26.09.86.46,1.69,1.07,2.32,2.46,2.56,5.78,3.69,9.3,4.54l3.61.88ZM99.1,20.53c4.39-.09,8.76.81,13.02.21l8.5-1.21c1.65-.24,2.05-.89,2.3-1.39,0,0-3.87-1.64-12.93-2.05-4.68-.21-8.76-.15-13.41-.07l-8.29.32-11.57.25c-4.85.11-11.98.07-15.1,2.66,5.77.84,11.1,1.43,16.83,1.74,6.91.37,13.65-.32,20.64-.46ZM110.67,41.27c9.65-5.53,10.05-9.35,11.92-20.14l-5.19.81c-4.58.71-9.05.87-13.66.13-4.23-.69-8.28-.5-12.45.34-5.15,1.04-10.26.89-15.45.28l-13.84-1.63c.42,5.46,3.84,15.21,7.88,18.26,5.43,4.11,12.26,3.1,15.39,11.95.66,1.85,2.81,3.38,4.77,3.31,4.65-.19,9.29-1.82,10.7-6.09,1.57-4.75,4.42-4.05,9.93-7.21ZM108.25,97.66c-1.84-.92-3.52-1.06-5.37-1.5-4.09-.99-9.47-3.49-9.41-7.38l.13-8.92-.55-9.21-.04-6.23c-.02-2.86.28-5.64,1.38-8.47l-4.37.12c2.6,5.5,2.04,11.93,2.06,18.02.04,8.94.69,19.4-8.64,21.4-2.87.61-5.56,1.27-8.32,2.47.13.42.55,1.45,2.74,1.4l11.46.3c6.37.29,17.36-.69,18.93-2Z"/>
        <ellipse cx="63.34" cy="21.04" rx=".9" ry="29.74" transform="translate(3.68 50.95) rotate(-45)"/>
      </g>
    </g>
  </g>
</svg>